<?xml version="1.0" standalone="no"?>
<!DOCTYPE svg PUBLIC "-//W3C//DTD SVG 20010904//EN"
 "http://www.w3.org/TR/2001/REC-SVG-20010904/DTD/svg10.dtd">
<svg version="1.0" xmlns="http://www.w3.org/2000/svg"
 width="815.000000pt" height="458.000000pt" viewBox="0 0 815.000000 458.000000"
 preserveAspectRatio="xMidYMid meet"
 style="background-color: #f00000;">

<g transform="translate(0.000000,458.000000) scale(0.100000,-0.100000)"
fill="#ffffff" stroke="none">
<path d="M0 2290 l0 -2290 4075 0 4075 0 0 2290 0 2290 -4075 0 -4075 0 0
-2290z m4788 1674 c212 -43 416 -182 537 -365 209 -313 225 -770 40 -1174 -18
-38 -117 -214 -220 -390 -104 -176 -262 -446 -352 -600 -190 -324 -248 -407
-358 -520 -153 -156 -354 -279 -560 -342 -84 -25 -103 -27 -270 -27 -176 0
-182 0 -275 32 -293 98 -504 331 -586 648 -36 136 -44 347 -20 495 20 118 79
305 126 400 48 96 705 1213 764 1299 69 100 211 248 313 324 146 109 318 188
483 221 93 19 285 18 378 -1z m-3163 -465 c544 -75 977 -489 1070 -1023 19
-114 19 -318 0 -432 -108 -619 -665 -1061 -1295 -1031 -334 17 -618 149 -852
397 -344 363 -434 886 -233 1353 98 227 297 450 520 580 125 73 315 138 460
157 90 11 244 11 330 -1z m5385 -13 c160 -35 300 -92 438 -182 117 -75 298
-260 370 -377 257 -415 257 -919 0 -1334 -72 -117 -253 -302 -370 -377 -490
-317 -1126 -261 -1545 137 -244 232 -393 576 -393 907 0 256 97 541 254 751
194 257 483 432 802 484 110 18 338 13 444 -9z"/>
</g>
</svg>
