<!-- <svg viewBox="0 0 24 24" fill="none" xmlns="http://www.w3.org/2000/svg" stroke="#f00000"><g id="SVGRepo_bgCarrier" stroke-width="0"></g><g id="SVGRepo_tracerCarrier" stroke-linecap="round" stroke-linejoin="round"></g><g id="SVGRepo_iconCarrier"> <path d="M12 5.50063L11.4596 6.02073C11.463 6.02421 11.4664 6.02765 11.4698 6.03106L12 5.50063ZM8.96173 18.9109L8.49742 19.4999L8.96173 18.9109ZM15.0383 18.9109L14.574 18.3219L15.0383 18.9109ZM7.00061 16.4209C6.68078 16.1577 6.20813 16.2036 5.94491 16.5234C5.68169 16.8432 5.72758 17.3159 6.04741 17.5791L7.00061 16.4209ZM2.34199 13.4115C2.54074 13.7749 2.99647 13.9084 3.35988 13.7096C3.7233 13.5108 3.85677 13.0551 3.65801 12.6917L2.34199 13.4115ZM13.4698 8.03034C13.7627 8.32318 14.2376 8.32309 14.5304 8.03014C14.8233 7.7372 14.8232 7.26232 14.5302 6.96948L13.4698 8.03034ZM2.75 9.1371C2.75 6.98623 3.96537 5.18252 5.62436 4.42419C7.23607 3.68748 9.40166 3.88258 11.4596 6.02073L12.5404 4.98053C10.0985 2.44352 7.26409 2.02539 5.00076 3.05996C2.78471 4.07292 1.25 6.42503 1.25 9.1371H2.75ZM8.49742 19.4999C9.00965 19.9037 9.55955 20.3343 10.1168 20.6599C10.6739 20.9854 11.3096 21.25 12 21.25V19.75C11.6904 19.75 11.3261 19.6293 10.8736 19.3648C10.4213 19.1005 9.95208 18.7366 9.42605 18.3219L8.49742 19.4999ZM15.5026 19.4999C16.9292 18.3752 18.7528 17.0866 20.1833 15.4758C21.6395 13.8361 22.75 11.8026 22.75 9.1371H21.25C21.25 11.3345 20.3508 13.0282 19.0617 14.4798C17.7469 15.9603 16.0896 17.1271 14.574 18.3219L15.5026 19.4999ZM22.75 9.1371C22.75 6.42503 21.2153 4.07292 18.9992 3.05996C16.7359 2.02539 13.9015 2.44352 11.4596 4.98053L12.5404 6.02073C14.5983 3.88258 16.7639 3.68748 18.3756 4.42419C20.0346 5.18252 21.25 6.98623 21.25 9.1371H22.75ZM14.574 18.3219C14.0479 18.7366 13.5787 19.1005 13.1264 19.3648C12.6739 19.6293 12.3096 19.75 12 19.75V21.25C12.6904 21.25 13.3261 20.9854 13.8832 20.6599C14.4405 20.3343 14.9903 19.9037 15.5026 19.4999L14.574 18.3219ZM9.42605 18.3219C8.63014 17.6945 7.82129 17.0963 7.00061 16.4209L6.04741 17.5791C6.87768 18.2624 7.75472 18.9144 8.49742 19.4999L9.42605 18.3219ZM3.65801 12.6917C3.0968 11.6656 2.75 10.5033 2.75 9.1371H1.25C1.25 10.7746 1.66995 12.1827 2.34199 13.4115L3.65801 12.6917ZM11.4698 6.03106L13.4698 8.03034L14.5302 6.96948L12.5302 4.97021L11.4698 6.03106Z" fill="#f00000"></path> </g></svg> -->

<!-- <svg width="235px" height="235px" viewBox="0 0 24 24" fill="none" xmlns="http://www.w3.org/2000/svg" stroke="#f00000"><g id="SVGRepo_bgCarrier" stroke-width="0"></g><g id="SVGRepo_tracerCarrier" stroke-linecap="round" stroke-linejoin="round"></g><g id="SVGRepo_iconCarrier"> <path d="M20.9982 9C21.0328 7.7106 20.558 6.41009 19.574 5.42602C17.6726 3.52466 14.5899 3.52466 12.6885 5.42602L12 6.11456L11.3115 5.42602C9.4101 3.52466 6.32738 3.52466 4.42602 5.42602C2.52466 7.32738 2.52466 10.4101 4.42602 12.3115L12 19.8854L13.8935 17.9919" stroke="#f00000" stroke-width="2" stroke-linecap="round" stroke-linejoin="round"></path> <path d="M9 12.6667H11.6667L13.6667 10L15.6667 15.3333L17.6667 12.6667H21" stroke="#f00000" stroke-width="2" stroke-linecap="round" stroke-linejoin="round"></path> </g></svg> -->

<svg width="235px" height="235px" viewBox="0 0 24.00 24.00" fill="none" xmlns="http://www.w3.org/2000/svg" stroke="#f00000"><g id="SVGRepo_bgCarrier" stroke-width="0"></g><g id="SVGRepo_tracerCarrier" stroke-linecap="round" stroke-linejoin="round"></g><g id="SVGRepo_iconCarrier"> <path d="M3 7.8C3 6.11984 3 5.27976 3.32698 4.63803C3.6146 4.07354 4.07354 3.6146 4.63803 3.32698C5.27976 3 6.11984 3 7.8 3H16.2C17.8802 3 18.7202 3 19.362 3.32698C19.9265 3.6146 20.3854 4.07354 20.673 4.63803C21 5.27976 21 6.11984 21 7.8V16.2C21 17.8802 21 18.7202 20.673 19.362C20.3854 19.9265 19.9265 20.3854 19.362 20.673C18.7202 21 17.8802 21 16.2 21H7.8C6.11984 21 5.27976 21 4.63803 20.673C4.07354 20.3854 3.6146 19.9265 3.32698 19.362C3 18.7202 3 17.8802 3 16.2V7.8Z" stroke="#f00000" stroke-width="1.2" stroke-linecap="round" stroke-linejoin="round"></path> <path fill-rule="evenodd" clip-rule="evenodd" d="M11.9966 9.06791C10.9969 7.8992 9.32987 7.58482 8.07735 8.65501C6.82482 9.72519 6.64848 11.5145 7.6321 12.7802C8.26211 13.5909 9.87558 15.0942 10.9542 16.0704C11.3127 16.3947 11.4919 16.5569 11.7066 16.622C11.8911 16.6779 12.102 16.6779 12.2866 16.622C12.5012 16.5569 12.6805 16.3947 13.0389 16.0704C14.1176 15.0942 15.731 13.5909 16.3611 12.7802C17.3447 11.5145 17.1899 9.71393 15.9158 8.65501C14.6417 7.59608 12.9963 7.8992 11.9966 9.06791Z" stroke="#f00000" stroke-width="1.2" stroke-linecap="round" stroke-linejoin="round"></path> </g></svg>